<?xml version="1.0" encoding="iso-8859-1"?>
<!-- Uploaded to: SVG Repo, www.svgrepo.com, Generator: SVG Repo Mixer Tools -->
<svg height="800px" width="800px" version="1.1" id="Layer_1" xmlns="http://www.w3.org/2000/svg" xmlns:xlink="http://www.w3.org/1999/xlink" 
	 viewBox="0 0 512 512" xml:space="preserve">
<circle style="fill:#FFD15D;" cx="256" cy="256" r="256"/>
<path style="fill:#FFBE00;" d="M278.628,510.993c119.158-10.438,214.893-102.498,230.974-219.948l-89.185-89.185l-135.109,41.641
	L87.85,320.215L278.628,510.993z"/>
<path style="fill:#26D4CB;" d="M426.668,312.889c0,23.564-76.41,42.667-170.667,42.667S85.335,336.453,85.335,312.889v-99.556
	h341.333V312.889z"/>
<path style="fill:#00D0A4;" d="M255.426,213.333v142.22c0.191,0,0.383,0.002,0.574,0.002c94.256,0,170.667-19.103,170.667-42.667
	v-99.556H255.426z"/>
<g>
	<ellipse style="fill:#FFFCFF;" cx="256" cy="213.333" rx="170.667" ry="42.667"/>
	<path style="fill:#FFFCFF;" d="M85.333,213.333c0,23.516,76.1,42.587,170.093,42.665v-85.33"/>
</g>
<path style="fill:#FCF2CF;" d="M256.002,170.667c-0.191,0-0.383,0.002-0.574,0.002v85.33c0.191,0,0.383,0.002,0.574,0.002
	c94.256,0,170.667-19.103,170.667-42.667S350.258,170.667,256.002,170.667z"/>
<path style="fill:#CECECE;" d="M402.534,213.333c0.707,16.662-64.326,30.168-145.253,30.168s-147.104-13.507-147.811-30.168
	s64.326-30.168,145.253-30.168S401.827,196.672,402.534,213.333z"/>
<path style="fill:#ACADAC;" d="M255.426,183.168v60.323c0.619,0.002,1.231,0.01,1.853,0.01c80.927,0,145.96-13.507,145.253-30.168
	C401.829,196.72,336.032,183.248,255.426,183.168z"/>
<path style="fill:#FFFCFF;" d="M357.685,213.333c1.264,7.616-43.237,13.791-99.395,13.791s-102.709-6.175-103.972-13.791
	s43.237-13.791,99.395-13.791S356.421,205.717,357.685,213.333z"/>
<path style="fill:#FCF2CF;" d="M255.426,199.547v27.567c0.953,0.003,1.903,0.01,2.863,0.01c56.158,0,100.659-6.175,99.395-13.791
	C356.435,205.795,310.812,199.673,255.426,199.547z"/>
<path style="fill:#53706C;" d="M337.155,305.993c0,0-8.297,24.178-48.356,24.178s-96.711-24.178-96.711-24.178
	s56.653-24.178,96.711-24.178S337.155,305.993,337.155,305.993z"/>
<path style="fill:#446864;" d="M288.799,281.815c-10.43,0-21.983,1.646-33.371,4.072v40.212c11.388,2.426,22.942,4.072,33.371,4.072
	c40.058,0,48.356-24.178,48.356-24.178S328.857,281.815,288.799,281.815z"/>
<polygon style="fill:#53706C;" points="192.086,305.993 170.668,284.444 170.668,328.404 "/>
</svg>