<?xml version="1.0" encoding="utf-8"?>
<!-- Uploaded to: SVG Repo, www.svgrepo.com, Generator: SVG Repo Mixer Tools -->
<svg width="800px" height="800px" viewBox="0 0 1024 1024" class="icon"  version="1.1" xmlns="http://www.w3.org/2000/svg"><path d="M155.312372 48.69103l77.076412-4.06113 28.534219 542.511628-77.076412 4.039867z" fill="#FDCA89" /><path d="M212.274498 66.976744l26.365449 500.093023-34.657807 1.913622L177.616691 68.890365l34.657807-1.913621M252.460545 21.262458l-119.495017 6.378738L164.433967 613.634551l119.495016-6.378737L252.460545 21.262458z" fill="#5C2D51" /><path d="M279.676492 67.827243h77.182724v543.255813H279.676492z" fill="#FDCA89" /><path d="M335.596757 89.089701v500.730897H300.93895V89.089701h34.657807m42.524917-42.524917H258.414033v585.780731h119.707641V46.564784z" fill="#5C2D51" /><path d="M298.60008 132.252492h77.182724v543.255814H298.60008z" fill="#FDCA89" /><path d="M354.520346 153.51495v500.730897H319.862538V153.51495h34.657808m42.524916-42.524917H277.337621v585.780731h119.707641V110.990033z" fill="#5C2D51" /><path d="M404.274498 51.880399h77.182725v543.255814h-77.182725z" fill="#FDCA89" /><path d="M460.194764 73.142857V574.086379h-34.657807V73.142857h34.657807m42.524917-42.524917h-119.707641V616.611296h119.707641V30.61794z" fill="#5C2D51" /><path d="M443.184797 96.744186h77.182725V640h-77.182725z" fill="#FDCA89" /><path d="M499.105063 118.006645V618.737542h-34.657807V118.006645h34.657807m42.524917-42.524917h-119.707641V661.262458h119.707641V75.481728z" fill="#5C2D51" /><path d="M537.547588 582.017276l37.804651-541.937542 76.991362 5.379402-37.804651 541.937542z" fill="#FDCA89" /><path d="M595.211375 63.787375l34.657808 2.338871-34.870432 499.667774-34.657807-2.33887L595.211375 63.787375M555.663203 17.435216L515.051907 601.727575l119.495017 8.292359L674.73297 25.727575 555.663203 17.435216z" fill="#5C2D51" /><path d="M681.196757 63.510963l77.182725-0.95681 6.633887 543.213289-77.182724 0.95681z" fill="#FDCA89" /><path d="M737.244598 83.986711l6.166113 500.730897H708.752904L702.799415 85.049834h34.657808m42.524917-42.524917h-120.345515l7.229235 585.780731 119.707642-1.488372-7.229236-585.993356z" fill="#5C2D51" /><path d="M738.669183 563.28505l63.192026-539.577409 76.651163 8.972758-63.192026 539.577408z" fill="#FDCA89" /><path d="M820.380811 47.202658l34.445182 4.039867-58.259136 497.328904-34.445183-4.039868 58.259137-497.328903M783.171508 0l-68.039867 581.953488 118.857143 13.820598L902.028651 13.820598 783.171508 0z" fill="#5C2D51" /><path d="M238.852571 1002.737542a45.714286 45.714286 0 0 1-45.289036-42.524917L143.171508 285.767442a9.568106 9.568106 0 0 1 9.780731-9.355482h718.033223a9.568106 9.568106 0 0 1 9.568106 10.418605l-50.179402 673.807309a45.714286 45.714286 0 0 1-45.289036 42.524917z" fill="#F05071" /><path d="M858.440611 297.674419l-49.328903 661.262458a24.239203 24.239203 0 0 1-24.026578 21.262459H238.852571a24.239203 24.239203 0 0 1-24.026578-21.262459L165.49709 297.674419h692.943521m12.757475-42.524917H152.952239A31.043189 31.043189 0 0 0 121.90905 287.468439l50.179402 674.657807a66.976744 66.976744 0 0 0 66.764119 61.873754h546.232559a66.976744 66.976744 0 0 0 66.764119-61.873754l50.179402-674.870432a31.043189 31.043189 0 0 0-30.830565-33.38206z" fill="#5C2D51" /><path d="M300.93895 714.843854c-6.803987 0-11.481728-3.827243-11.694352-6.166113l-11.056478-140.119601a3.614618 3.614618 0 0 1 1.275747-2.551495 14.458472 14.458472 0 0 1 10.631229-3.827243h443.960133a14.458472 14.458472 0 0 1 10.631229 3.827243 3.614618 3.614618 0 0 1 1.275748 2.551495l-11.056478 140.119601c0 2.551495-4.890365 6.166113-11.694353 6.166113z" fill="#9FDBAD" /><path d="M723.424 583.44186l-8.717608 110.139535H309.231309l-8.717608-110.139535h422.910299m10.631229-42.524916H289.882472a30.192691 30.192691 0 0 0-32.956811 29.342192l11.056479 140.119602a31.255814 31.255814 0 0 0 32.95681 25.727574h422.059801a31.255814 31.255814 0 0 0 32.95681-25.727574l11.056479-140.119602a30.192691 30.192691 0 0 0-32.956811-29.342192z" fill="#5C2D51" /></svg>