<?xml version="1.0" encoding="utf-8"?><!-- Uploaded to: SVG Repo, www.svgrepo.com, Generator: SVG Repo Mixer Tools -->
<svg fill="#000000" width="800px" height="800px" viewBox="0 0 24 24" id="winter-ice" data-name="Flat Color" xmlns="http://www.w3.org/2000/svg" class="icon flat-color"><path id="primary" d="M21,11H14.83A3,3,0,0,0,13,9.17V3a1,1,0,0,0-2,0V9.17A3,3,0,0,0,9.17,11H3a1,1,0,0,0,0,2H9.17A3,3,0,0,0,11,14.83V21a1,1,0,0,0,2,0V14.83A3,3,0,0,0,14.83,13H21a1,1,0,0,0,0-2Zm-9,2a1,1,0,1,1,1-1A1,1,0,0,1,12,13Z" style="fill: rgb(0, 0, 0);"></path><path id="secondary" d="M12,8a1,1,0,0,1-.55-.17l-3-2a1,1,0,0,1,1.1-1.66L12,5.8l2.45-1.63a1,1,0,0,1,1.1,1.66l-3,2A1,1,0,0,1,12,8Zm7.55,7.83a1,1,0,0,0,.28-1.38L18.2,12l1.63-2.45a1,1,0,1,0-1.66-1.1l-2,3a1,1,0,0,0,0,1.1l2,3A1,1,0,0,0,19,16,.94.94,0,0,0,19.55,15.83Zm-3.72,3.72a1,1,0,0,0-.28-1.38l-3-2a1,1,0,0,0-1.1,0l-3,2a1,1,0,0,0,1.1,1.66L12,18.2l2.45,1.63A.94.94,0,0,0,15,20,1,1,0,0,0,15.83,19.55Zm-10-4,2-3a1,1,0,0,0,0-1.1l-2-3a1,1,0,0,0-1.66,1.1L5.8,12,4.17,14.45a1,1,0,0,0,.28,1.38A.94.94,0,0,0,5,16,1,1,0,0,0,5.83,15.55Z" style="fill: rgb(44, 169, 188);"></path></svg>